<?xml version="1.0" standalone="yes"?>

<svg version="1.1" viewBox="0.0 0.0 831.496062992126 377.9527559055118" fill="none" stroke="none" stroke-linecap="square" stroke-miterlimit="10" xmlns="http://www.w3.org/2000/svg" xmlns:xlink="http://www.w3.org/1999/xlink"><clipPath id="p.0"><path d="m0 0l831.49603 0l0 377.95276l-831.49603 0l0 -377.95276z" clip-rule="nonzero"></path></clipPath><g clip-path="url(#p.0)"><path fill="#000000" fill-opacity="0.0" d="m0 0l831.49603 0l0 377.95276l-831.49603 0z" fill-rule="evenodd"></path><path fill="#000000" fill-opacity="0.0" d="m29.951921 178.5223l0 0c0 -46.731125 51.095947 -84.61418 114.12599 -84.61418l0 0c63.03003 0 114.12598 37.883057 114.12598 84.61418l0 0c0 46.73111 -51.095947 84.61415 -114.12598 84.61415l0 0c-63.030045 0 -114.12599 -37.88304 -114.12599 -84.61415z" fill-rule="evenodd"></path><path stroke="#666666" stroke-width="4.0" stroke-linejoin="round" stroke-linecap="butt" d="m29.951921 178.5223l0 0c0 -46.731125 51.095947 -84.61418 114.12599 -84.61418l0 0c63.03003 0 114.12598 37.883057 114.12598 84.61418l0 0c0 46.73111 -51.095947 84.61415 -114.12598 84.61415l0 0c-63.030045 0 -114.12599 -37.88304 -114.12599 -84.61415z" fill-rule="evenodd"></path><path fill="#000000" fill-opacity="0.0" d="m194.69711 42.304634c-16.818665 5.437973 -36.420364 8.957523 -48.525223 19.52494c-15.140747 13.217712 -22.03508 30.961739 -32.948036 46.48706c-8.127937 11.563202 -22.962502 19.830307 -30.553406 31.611252c-3.729515 5.788147 -2.564827 13.210007 -7.189476 18.595123c-8.149361 9.489426 -19.11951 17.396927 -29.95242 25.102463c-9.43177 6.708893 0.83888626 20.037506 -1.7973709 29.753036c-5.8952103 21.725952 -7.80674 46.776703 5.392109 66.475464c5.800495 8.657043 17.797913 13.831848 25.75856 21.384613c11.795021 11.190643 22.068115 23.696838 28.756035 37.190216c4.6594086 9.400726 6.9405136 24.500763 19.769196 26.032288c32.22457 3.8470764 20.915108 -48.002045 34.14814 -71.1246c7.1065826 -12.417603 28.755707 -16.895966 37.14189 -28.823212c12.376282 -17.602158 14.740585 -38.437515 22.16568 -57.643555c7.8216248 -20.231674 17.082733 -40.123596 24.56218 -60.43303c6.0569 -16.446686 16.48497 -31.819405 22.165695 -48.346718c3.8082275 -11.079582 -2.4299622 -23.089928 0 -34.40074c1.8356934 -8.544678 8.17865 -17.074444 5.9893494 -25.56882c-1.5132141 -5.8712463 -15.5633545 -1.104557 -22.764801 -3.2543983c-11.560928 -3.4512787 -23.184113 -13.677223 -34.745407 -10.226662c-9.058121 2.7034683 -10.510223 12.804981 -17.372696 18.1302" fill-rule="evenodd"></path><path stroke="#666666" stroke-width="8.0" stroke-linejoin="round" stroke-linecap="butt" d="m194.69711 42.304634c-16.818665 5.437973 -36.420364 8.957523 -48.525223 19.52494c-15.140747 13.217712 -22.03508 30.961739 -32.948036 46.48706c-8.127937 11.563202 -22.962502 19.830307 -30.553406 31.611252c-3.729515 5.788147 -2.564827 13.210007 -7.189476 18.595123c-8.149361 9.489426 -19.11951 17.396927 -29.95242 25.102463c-9.43177 6.708893 0.83888626 20.037506 -1.7973709 29.753036c-5.8952103 21.725952 -7.80674 46.776703 5.392109 66.475464c5.800495 8.657043 17.797913 13.831848 25.75856 21.384613c11.795021 11.190643 22.068115 23.696838 28.756035 37.190216c4.6594086 9.400726 6.9405136 24.500763 19.769196 26.032288c32.22457 3.8470764 20.915108 -48.002045 34.14814 -71.1246c7.1065826 -12.417603 28.755707 -16.895966 37.14189 -28.823212c12.376282 -17.602158 14.740585 -38.437515 22.16568 -57.643555c7.8216248 -20.231674 17.082733 -40.123596 24.56218 -60.43303c6.0569 -16.446686 16.48497 -31.819405 22.165695 -48.346718c3.8082275 -11.079582 -2.4299622 -23.089928 0 -34.40074c1.8356934 -8.544678 8.17865 -17.074444 5.9893494 -25.56882c-1.5132141 -5.8712463 -15.5633545 -1.104557 -22.764801 -3.2543983c-11.560928 -3.4512787 -23.184113 -13.677223 -34.745407 -10.226662c-9.058121 2.7034683 -10.510223 12.804981 -17.372696 18.1302" fill-rule="evenodd"></path><path fill="#000000" fill-opacity="0.0" d="m97.08512 148.76521l126.99212 0l0 31.244095l-126.99212 0z" fill-rule="evenodd"></path><path fill="#666666" d="m130.67886 190.99771l7.296875 2.3125q-1.671875 6.09375 -5.578125 9.0625q-3.890625 2.953125 -9.890617 2.953125q-7.40625 0 -12.1875 -5.0625q-4.765625 -5.078125 -4.765625 -13.859375q0 -9.296875 4.796875 -14.4375q4.796875 -5.140625 12.609375 -5.140625q6.8437424 0 11.109367 4.03125q2.53125 2.390625 3.796875 6.859375l-7.4375 1.78125q-0.65625 -2.890625 -2.7499924 -4.5625q-2.09375 -1.6875 -5.09375 -1.6875q-4.140625 0 -6.71875 2.96875q-2.578125 2.96875 -2.578125 9.625q0 7.0625 2.53125 10.0625q2.546875 2.984375 6.609375 2.984375q3.0 0 5.15625 -1.890625q2.1562424 -1.90625 3.0937424 -6.0zm37.552734 0l7.296875 2.3125q-1.671875 6.09375 -5.578125 9.0625q-3.890625 2.953125 -9.890625 2.953125q-7.40625 0 -12.1875 -5.0625q-4.765625 -5.078125 -4.765625 -13.859375q0 -9.296875 4.796875 -14.4375q4.796875 -5.140625 12.609375 -5.140625q6.84375 0 11.109375 4.03125q2.53125 2.390625 3.796875 6.859375l-7.4375 1.78125q-0.65625 -2.890625 -2.75 -4.5625q-2.09375 -1.6875 -5.09375 -1.6875q-4.140625 0 -6.71875 2.96875q-2.578125 2.96875 -2.578125 9.625q0 7.0625 2.53125 10.0625q2.546875 2.984375 6.609375 2.984375q3.0 0 5.15625 -1.890625q2.15625 -1.90625 3.09375 -6.0z" fill-rule="nonzero"></path><path fill="#000000" fill-opacity="0.0" d="m282.07425 197.35301l594.8031 0l0 31.244095l-594.8031 0z" fill-rule="evenodd"></path><path fill="#666666" d="m315.668 239.58551l7.296875 2.3125q-1.671875 6.09375 -5.578125 9.0625q-3.890625 2.953125 -9.890625 2.953125q-7.40625 0 -12.1875 -5.0625q-4.765625 -5.078125 -4.765625 -13.859375q0 -9.296875 4.796875 -14.4375q4.796875 -5.140625 12.609375 -5.140625q6.84375 0 11.109375 4.03125q2.53125 2.390625 3.796875 6.859375l-7.4375 1.78125q-0.65625 -2.890625 -2.75 -4.5625q-2.09375 -1.6875 -5.09375 -1.6875q-4.140625 0 -6.71875 2.96875q-2.578125 2.96875 -2.578125 9.625q0 7.0625 2.53125 10.0625q2.546875 2.984375 6.609375 2.984375q3.0 0 5.15625 -1.890625q2.15625 -1.90625 3.09375 -6.0zm20.521484 13.6875l-7.140625 0l0 -26.96875l6.640625 0l0 3.84375q1.6875 -2.71875 3.046875 -3.578125q1.359375 -0.875 3.09375 -0.875q2.4375 0 4.6875 1.34375l-2.203125 6.21875q-1.796875 -1.15625 -3.34375 -1.15625q-1.5 0 -2.546875 0.828125q-1.046875 0.8125 -1.640625 2.984375q-0.59375 2.15625 -0.59375 9.03125l0 8.328125zm29.017578 -8.578125l7.109375 1.1875q-1.359375 3.90625 -4.328125 5.953125q-2.953125 2.046875 -7.390625 2.046875q-7.046875 0 -10.421875 -4.59375q-2.65625 -3.6875 -2.65625 -9.296875q0 -6.703125 3.5 -10.5q3.5 -3.796875 8.859375 -3.796875q6.015625 0 9.484375 3.984375q3.484375 3.96875 3.34375 12.171875l-17.875 0q0.078125 3.171875 1.71875 4.9375q1.65625 1.765625 4.109375 1.765625q1.6875 0 2.828125 -0.90625q1.140625 -0.921875 1.71875 -2.953125zm0.40625 -7.21875q-0.078125 -3.09375 -1.609375 -4.703125q-1.515625 -1.609375 -3.6875 -1.609375q-2.34375 0 -3.859375 1.6875q-1.53125 1.703125 -1.5 4.625l10.65625 0zm18.232422 -2.9375l-6.46875 -1.171875q1.09375 -3.90625 3.75 -5.78125q2.671875 -1.890625 7.921875 -1.890625q4.78125 0 7.109375 1.140625q2.34375 1.125 3.296875 2.859375q0.953125 1.734375 0.953125 6.390625l-0.078125 8.328125q0 3.546875 0.34375 5.234375q0.34375 1.6875 1.28125 3.625l-7.0625 0q-0.28125 -0.71875 -0.6875 -2.109375q-0.171875 -0.640625 -0.25 -0.84375q-1.828125 1.78125 -3.921875 2.671875q-2.078125 0.890625 -4.4375 0.890625q-4.15625 0 -6.5625 -2.25q-2.390625 -2.265625 -2.390625 -5.71875q0 -2.296875 1.078125 -4.078125q1.09375 -1.796875 3.0625 -2.75q1.96875 -0.953125 5.6875 -1.65625q5.0 -0.9375 6.921875 -1.75l0 -0.71875q0 -2.046875 -1.015625 -2.921875q-1.015625 -0.875 -3.828125 -0.875q-1.90625 0 -2.984375 0.75q-1.0625 0.734375 -1.71875 2.625zm9.546875 5.78125q-1.375 0.453125 -4.34375 1.09375q-2.96875 0.640625 -3.875 1.25q-1.40625 0.984375 -1.40625 2.515625q0 1.484375 1.109375 2.578125q1.125 1.09375 2.859375 1.09375q1.921875 0 3.671875 -1.265625q1.296875 -0.96875 1.703125 -2.359375q0.28125 -0.921875 0.28125 -3.484375l0 -1.421875zm26.404297 -14.015625l0 5.6875l-4.875 0l0 10.875q0 3.296875 0.140625 3.84375q0.140625 0.546875 0.640625 0.90625q0.5 0.34375 1.203125 0.34375q0.984375 0 2.875 -0.6875l0.609375 5.546875q-2.5 1.0625 -5.640625 1.0625q-1.9375 0 -3.484375 -0.640625q-1.546875 -0.65625 -2.265625 -1.6875q-0.71875 -1.03125 -1.0 -2.78125q-0.234375 -1.234375 -0.234375 -5.015625l0 -11.765625l-3.28125 0l0 -5.6875l3.28125 0l0 -5.359375l7.15625 -4.15625l0 9.515625l4.875 0zm4.9570312 -3.65625l0 -6.59375l7.140625 0l0 6.59375l-7.140625 0zm0 30.625l0 -26.96875l7.140625 0l0 26.96875l-7.140625 0zm21.853516 0l-10.859375 -26.96875l7.484375 0l5.078125 13.765625l1.484375 4.59375q0.578125 -1.75 0.734375 -2.3125q0.34375 -1.140625 0.75 -2.28125l5.140625 -13.765625l7.328125 0l-10.703125 26.96875l-6.4375 0zm37.123047 -8.578125l7.109375 1.1875q-1.359375 3.90625 -4.328125 5.953125q-2.953125 2.046875 -7.390625 2.046875q-7.046875 0 -10.421875 -4.59375q-2.65625 -3.6875 -2.65625 -9.296875q0 -6.703125 3.5 -10.5q3.5 -3.796875 8.859375 -3.796875q6.015625 0 9.484375 3.984375q3.484375 3.96875 3.34375 12.171875l-17.875 0q0.078125 3.171875 1.71875 4.9375q1.65625 1.765625 4.109375 1.765625q1.6875 0 2.828125 -0.90625q1.140625 -0.921875 1.71875 -2.953125zm0.40625 -7.21875q-0.078125 -3.09375 -1.609375 -4.703125q-1.515625 -1.609375 -3.6875 -1.609375q-2.34375 0 -3.859375 1.6875q-1.53125 1.703125 -1.5 4.625l10.65625 0zm51.210907 2.109375l7.296875 2.3125q-1.671875 6.09375 -5.578125 9.0625q-3.890625 2.953125 -9.890625 2.953125q-7.40625 0 -12.1875 -5.0625q-4.7655945 -5.078125 -4.7655945 -13.859375q0 -9.296875 4.7968445 -14.4375q4.796875 -5.140625 12.609375 -5.140625q6.84375 0 11.109375 4.03125q2.53125 2.390625 3.796875 6.859375l-7.4375 1.78125q-0.65625 -2.890625 -2.75 -4.5625q-2.09375 -1.6875 -5.09375 -1.6875q-4.140625 0 -6.71875 2.96875q-2.578125 2.96875 -2.578125 9.625q0 7.0625 2.53125 10.0625q2.546875 2.984375 6.609375 2.984375q3.0 0 5.15625 -1.890625q2.15625 -1.90625 3.09375 -6.0zm12.037109 -0.171875q0 -3.5625 1.75 -6.890625q1.765625 -3.328125 4.96875 -5.078125q3.21875 -1.75 7.171875 -1.75q6.125 0 10.03125 3.984375q3.90625 3.96875 3.90625 10.03125q0 6.125 -3.953125 10.15625q-3.9375 4.015625 -9.9375 4.015625q-3.703125 0 -7.0625 -1.671875q-3.359375 -1.6875 -5.125 -4.921875q-1.75 -3.234375 -1.75 -7.875zm7.3125 0.375q0 4.015625 1.90625 6.15625q1.90625 2.125 4.703125 2.125q2.796875 0 4.6875 -2.125q1.890625 -2.140625 1.890625 -6.203125q0 -3.96875 -1.890625 -6.09375q-1.890625 -2.140625 -4.6875 -2.140625q-2.796875 0 -4.703125 2.140625q-1.90625 2.125 -1.90625 6.140625zm25.576172 -13.484375l6.578125 0l0 3.6875q3.53125 -4.296875 8.40625 -4.296875q2.578125 0 4.484375 1.078125q1.90625 1.0625 3.125 3.21875q1.78125 -2.15625 3.828125 -3.21875q2.0625 -1.078125 4.40625 -1.078125q2.96875 0 5.015625 1.21875q2.0625 1.203125 3.078125 3.53125q0.734375 1.734375 0.734375 5.59375l0 17.234375l-7.140625 0l0 -15.40625q0 -4.015625 -0.734375 -5.1875q-0.984375 -1.515625 -3.046875 -1.515625q-1.5 0 -2.828125 0.921875q-1.3125 0.90625 -1.890625 2.671875q-0.578125 1.75 -0.578125 5.5625l0 12.953125l-7.140625 0l0 -14.78125q0 -3.9375 -0.390625 -5.078125q-0.375 -1.140625 -1.171875 -1.6875q-0.796875 -0.5625 -2.171875 -0.5625q-1.640625 0 -2.96875 0.890625q-1.3125 0.875 -1.890625 2.5625q-0.578125 1.671875 -0.578125 5.546875l0 13.109375l-7.125 0l0 -26.96875zm46.23633 0l6.578125 0l0 3.6875q3.53125 -4.296875 8.40625 -4.296875q2.578125 0 4.484375 1.078125q1.90625 1.0625 3.125 3.21875q1.78125 -2.15625 3.828125 -3.21875q2.0625 -1.078125 4.40625 -1.078125q2.96875 0 5.015625 1.21875q2.0625 1.203125 3.078125 3.53125q0.734375 1.734375 0.734375 5.59375l0 17.234375l-7.140625 0l0 -15.40625q0 -4.015625 -0.734375 -5.1875q-0.984375 -1.515625 -3.046875 -1.515625q-1.5 0 -2.828125 0.921875q-1.3125 0.90625 -1.890625 2.671875q-0.578125 1.75 -0.578125 5.5625l0 12.953125l-7.140625 0l0 -14.78125q0 -3.9375 -0.390625 -5.078125q-0.375 -1.140625 -1.171875 -1.6875q-0.796875 -0.5625 -2.171875 -0.5625q-1.640625 0 -2.96875 0.890625q-1.3125 0.875 -1.890625 2.5625q-0.578125 1.671875 -0.578125 5.546875l0 13.109375l-7.125 0l0 -26.96875zm45.11133 13.109375q0 -3.5625 1.75 -6.890625q1.765625 -3.328125 4.96875 -5.078125q3.21875 -1.75 7.171875 -1.75q6.125 0 10.03125 3.984375q3.90625 3.96875 3.90625 10.03125q0 6.125 -3.953125 10.15625q-3.9375 4.015625 -9.9375 4.015625q-3.703125 0 -7.0625 -1.671875q-3.359375 -1.6875 -5.125 -4.921875q-1.75 -3.234375 -1.75 -7.875zm7.3125 0.375q0 4.015625 1.90625 6.15625q1.90625 2.125 4.703125 2.125q2.796875 0 4.6875 -2.125q1.890625 -2.140625 1.890625 -6.203125q0 -3.96875 -1.890625 -6.09375q-1.890625 -2.140625 -4.6875 -2.140625q-2.796875 0 -4.703125 2.140625q-1.90625 2.125 -1.90625 6.140625zm50.63867 13.484375l-7.140625 0l0 -13.765625q0 -4.359375 -0.453125 -5.640625q-0.453125 -1.28125 -1.484375 -1.984375q-1.03125 -0.71875 -2.484375 -0.71875q-1.84375 0 -3.328125 1.015625q-1.46875 1.015625 -2.015625 2.6875q-0.546875 1.671875 -0.546875 6.1875l0 12.21875l-7.125 0l0 -26.96875l6.625 0l0 3.96875q3.53125 -4.578125 8.890625 -4.578125q2.359375 0 4.3125 0.859375q1.953125 0.84375 2.953125 2.171875q1.0 1.3125 1.390625 3.0q0.40625 1.671875 0.40625 4.78125l0 16.765625zm4.716797 -7.6875l7.15625 -1.09375q0.46875 2.078125 1.859375 3.15625q1.390625 1.078125 3.90625 1.078125q2.765625 0 4.171875 -1.015625q0.9375 -0.703125 0.9375 -1.90625q0 -0.8125 -0.515625 -1.34375q-0.53125 -0.5 -2.375 -0.9375q-8.640625 -1.90625 -10.953125 -3.484375q-3.203125 -2.171875 -3.203125 -6.0625q0 -3.5 2.765625 -5.890625q2.78125 -2.390625 8.59375 -2.390625q5.53125 0 8.21875 1.8125q2.703125 1.796875 3.71875 5.328125l-6.734375 1.234375q-0.4375 -1.5625 -1.640625 -2.40625q-1.203125 -0.84375 -3.4375 -0.84375q-2.8125 0 -4.03125 0.796875q-0.8125 0.5625 -0.8125 1.4375q0 0.765625 0.703125 1.296875q0.96875 0.71875 6.65625 2.015625q5.703125 1.296875 7.96875 3.171875q2.234375 1.90625 2.234375 5.296875q0 3.71875 -3.09375 6.390625q-3.09375 2.65625 -9.171875 2.65625q-5.5 0 -8.71875 -2.234375q-3.21875 -2.234375 -4.203125 -6.0625z" fill-rule="nonzero"></path><path fill="#666666" d="m300.2305 315.273l0 -30.921875l-11.03125 0l0 -6.296875l29.578125 0l0 6.296875l-11.03125 0l0 30.921875l-7.515625 0zm28.669922 -18.734375l-6.46875 -1.171875q1.09375 -3.90625 3.75 -5.78125q2.671875 -1.890625 7.921875 -1.890625q4.78125 0 7.109375 1.140625q2.34375 1.125 3.296875 2.859375q0.953125 1.734375 0.953125 6.390625l-0.078125 8.328125q0 3.546875 0.34375 5.234375q0.34375 1.6875 1.28125 3.625l-7.0625 0q-0.28125 -0.71875 -0.6875 -2.109375q-0.171875 -0.640625 -0.25 -0.84375q-1.828125 1.78125 -3.921875 2.671875q-2.078125 0.890625 -4.4375 0.890625q-4.15625 0 -6.5625 -2.25q-2.390625 -2.265625 -2.390625 -5.71875q0 -2.296875 1.078125 -4.078125q1.09375 -1.796875 3.0625 -2.75q1.96875 -0.953125 5.6875 -1.65625q5.0 -0.9375 6.921875 -1.75l0 -0.71875q0 -2.046875 -1.015625 -2.921875q-1.015625 -0.875 -3.828125 -0.875q-1.90625 0 -2.984375 0.75q-1.0625 0.734375 -1.71875 2.625zm9.546875 5.78125q-1.375 0.453125 -4.34375 1.09375q-2.96875 0.640625 -3.875 1.25q-1.40625 0.984375 -1.40625 2.515625q0 1.484375 1.109375 2.578125q1.125 1.09375 2.859375 1.09375q1.921875 0 3.671875 -1.265625q1.296875 -0.96875 1.703125 -2.359375q0.28125 -0.921875 0.28125 -3.484375l0 -1.421875zm14.044922 -17.671875l0 -6.59375l7.140625 0l0 6.59375l-7.140625 0zm0 30.625l0 -26.96875l7.140625 0l0 26.96875l-7.140625 0zm19.478516 0l-8.53125 -26.96875l6.921875 0l5.0625 17.671875l4.640625 -17.671875l6.875 0l4.5 17.671875l5.15625 -17.671875l7.03125 0l-8.65625 26.96875l-6.859375 0l-4.640625 -17.34375l-4.578125 17.34375l-6.921875 0zm40.74414 -18.734375l-6.46875 -1.171875q1.09375 -3.90625 3.75 -5.78125q2.671875 -1.890625 7.921875 -1.890625q4.78125 0 7.109375 1.140625q2.34375 1.125 3.296875 2.859375q0.953125 1.734375 0.953125 6.390625l-0.078125 8.328125q0 3.546875 0.34375 5.234375q0.34375 1.6875 1.28125 3.625l-7.0625 0q-0.28125 -0.71875 -0.6875 -2.109375q-0.171875 -0.640625 -0.25 -0.84375q-1.828125 1.78125 -3.921875 2.671875q-2.078125 0.890625 -4.4375 0.890625q-4.15625 0 -6.5625 -2.25q-2.390625 -2.265625 -2.390625 -5.71875q0 -2.296875 1.078125 -4.078125q1.09375 -1.796875 3.0625 -2.75q1.96875 -0.953125 5.6875 -1.65625q5.0 -0.9375 6.921875 -1.75l0 -0.71875q0 -2.046875 -1.015625 -2.921875q-1.015625 -0.875 -3.828125 -0.875q-1.90625 0 -2.984375 0.75q-1.0625 0.734375 -1.71875 2.625zm9.546875 5.78125q-1.375 0.453125 -4.34375 1.09375q-2.96875 0.640625 -3.875 1.25q-1.40625 0.984375 -1.40625 2.515625q0 1.484375 1.109375 2.578125q1.125 1.09375 2.859375 1.09375q1.921875 0 3.671875 -1.265625q1.296875 -0.96875 1.703125 -2.359375q0.28125 -0.921875 0.28125 -3.484375l0 -1.421875zm38.57617 12.953125l-7.140625 0l0 -13.765625q0 -4.359375 -0.453125 -5.640625q-0.453125 -1.28125 -1.484375 -1.984375q-1.03125 -0.71875 -2.484375 -0.71875q-1.84375 0 -3.328125 1.015625q-1.46875 1.015625 -2.015625 2.6875q-0.546875 1.671875 -0.546875 6.1875l0 12.21875l-7.125 0l0 -26.96875l6.625 0l0 3.96875q3.53125 -4.578125 8.890625 -4.578125q2.359375 0 4.3125 0.859375q1.953125 0.84375 2.953125 2.171875q1.0 1.3125 1.390625 3.0q0.40625 1.671875 0.40625 4.78125l0 16.765625zm45.539062 -13.6875l7.2968445 2.3125q-1.671875 6.09375 -5.5780945 9.0625q-3.890625 2.953125 -9.890625 2.953125q-7.40625 0 -12.1875 -5.0625q-4.765625 -5.078125 -4.765625 -13.859375q0 -9.296875 4.796875 -14.4375q4.796875 -5.140625 12.609375 -5.140625q6.84375 0 11.109375 4.03125q2.5312195 2.390625 3.7968445 6.859375l-7.4374695 1.78125q-0.65625 -2.890625 -2.75 -4.5625q-2.09375 -1.6875 -5.09375 -1.6875q-4.140625 0 -6.71875 2.96875q-2.578125 2.96875 -2.578125 9.625q0 7.0625 2.53125 10.0625q2.546875 2.984375 6.609375 2.984375q3.0 0 5.15625 -1.890625q2.15625 -1.90625 3.09375 -6.0zm20.802704 -23.53125l0 13.6875q3.453125 -4.046875 8.25 -4.046875q2.46875 0 4.4375 0.921875q1.984375 0.90625 2.984375 2.328125q1.015625 1.421875 1.375 3.15625q0.375 1.71875 0.375 5.359375l0 15.8125l-7.140625 0l0 -14.25q0 -4.234375 -0.40625 -5.375q-0.40625 -1.140625 -1.4375 -1.8125q-1.03125 -0.671875 -2.578125 -0.671875q-1.765625 0 -3.171875 0.859375q-1.390625 0.859375 -2.046875 2.609375q-0.640625 1.734375 -0.640625 5.125l0 13.515625l-7.140625 0l0 -37.21875l7.140625 0zm29.982422 18.484375l-6.46875 -1.171875q1.09375 -3.90625 3.75 -5.78125q2.671875 -1.890625 7.921875 -1.890625q4.78125 0 7.109375 1.140625q2.34375 1.125 3.296875 2.859375q0.953125 1.734375 0.953125 6.390625l-0.078125 8.328125q0 3.546875 0.34375 5.234375q0.34375 1.6875 1.28125 3.625l-7.0625 0q-0.28125 -0.71875 -0.6875 -2.109375q-0.171875 -0.640625 -0.25 -0.84375q-1.828125 1.78125 -3.921875 2.671875q-2.078125 0.890625 -4.4375 0.890625q-4.15625 0 -6.5625 -2.25q-2.390625 -2.265625 -2.390625 -5.71875q0 -2.296875 1.078125 -4.078125q1.09375 -1.796875 3.0625 -2.75q1.96875 -0.953125 5.6875 -1.65625q5.0 -0.9375 6.921875 -1.75l0 -0.71875q0 -2.046875 -1.015625 -2.921875q-1.015625 -0.875 -3.828125 -0.875q-1.90625 0 -2.984375 0.75q-1.0625 0.734375 -1.71875 2.625zm9.546875 5.78125q-1.375 0.453125 -4.34375 1.09375q-2.96875 0.640625 -3.875 1.25q-1.40625 0.984375 -1.40625 2.515625q0 1.484375 1.109375 2.578125q1.125 1.09375 2.859375 1.09375q1.921875 0 3.671875 -1.265625q1.296875 -0.96875 1.703125 -2.359375q0.28125 -0.921875 0.28125 -3.484375l0 -1.421875zm13.841797 -14.015625l6.65625 0l0 3.96875q1.296875 -2.03125 3.5 -3.296875q2.203125 -1.28125 4.90625 -1.28125q4.6875 0 7.953125 3.6875q3.28125 3.671875 3.28125 10.25q0 6.765625 -3.296875 10.515625q-3.296875 3.734375 -8.0 3.734375q-2.234375 0 -4.046875 -0.890625q-1.8125 -0.890625 -3.8125 -3.046875l0 13.59375l-7.140625 0l0 -37.234375zm7.0625 13.03125q0 4.546875 1.796875 6.71875q1.796875 2.171875 4.390625 2.171875q2.484375 0 4.140625 -2.0q1.65625 -2.0 1.65625 -6.53125q0 -4.25 -1.703125 -6.296875q-1.703125 -2.0625 -4.21875 -2.0625q-2.609375 0 -4.34375 2.015625q-1.71875 2.015625 -1.71875 5.984375zm37.26367 -13.03125l0 5.6875l-4.875 0l0 10.875q0 3.296875 0.140625 3.84375q0.140625 0.546875 0.640625 0.90625q0.5 0.34375 1.203125 0.34375q0.984375 0 2.875 -0.6875l0.609375 5.546875q-2.5 1.0625 -5.640625 1.0625q-1.9375 0 -3.484375 -0.640625q-1.546875 -0.65625 -2.265625 -1.6875q-0.71875 -1.03125 -1.0 -2.78125q-0.234375 -1.234375 -0.234375 -5.015625l0 -11.765625l-3.28125 0l0 -5.6875l3.28125 0l0 -5.359375l7.15625 -4.15625l0 9.515625l4.875 0zm20.566406 18.390625l7.109375 1.1875q-1.359375 3.90625 -4.328125 5.953125q-2.953125 2.046875 -7.390625 2.046875q-7.046875 0 -10.421875 -4.59375q-2.65625 -3.6875 -2.65625 -9.296875q0 -6.703125 3.5 -10.5q3.5 -3.796875 8.859375 -3.796875q6.015625 0 9.484375 3.984375q3.484375 3.96875 3.34375 12.171875l-17.875 0q0.078125 3.171875 1.71875 4.9375q1.65625 1.765625 4.109375 1.765625q1.6875 0 2.828125 -0.90625q1.140625 -0.921875 1.71875 -2.953125zm0.40625 -7.21875q-0.078125 -3.09375 -1.609375 -4.703125q-1.515625 -1.609375 -3.6875 -1.609375q-2.34375 0 -3.859375 1.6875q-1.53125 1.703125 -1.5 4.625l10.65625 0zm19.732422 15.796875l-7.140625 0l0 -26.96875l6.640625 0l0 3.84375q1.6875 -2.71875 3.046875 -3.578125q1.359375 -0.875 3.09375 -0.875q2.4375 0 4.6875 1.34375l-2.203125 6.21875q-1.796875 -1.15625 -3.34375 -1.15625q-1.5 0 -2.546875 0.828125q-1.046875 0.8125 -1.640625 2.984375q-0.59375 2.15625 -0.59375 9.03125l0 8.328125z" fill-rule="nonzero"></path><path fill="#000000" fill-opacity="0.0" d="m275.78726 76.66537l630.8346 0l0 29.826775l-630.8346 0z" fill-rule="evenodd"></path><path fill="#666666" d="m326.3654 141.196l11.78125 3.734375q-2.703125 9.84375 -9.0 14.625q-6.296875 4.78125 -15.984375 4.78125q-11.96875 0 -19.6875 -8.1875q-7.703125 -8.1875 -7.703125 -22.375q0 -15.015633 7.75 -23.312508q7.75 -8.3125 20.375 -8.3125q11.046875 0 17.9375 6.515625q4.09375 3.859375 6.140625 11.078125l-12.015625 2.875q-1.0625 -4.671875 -4.453125 -7.375q-3.375 -2.71875 -8.21875 -2.71875q-6.6875 0 -10.859375 4.796875q-4.15625 4.796875 -4.15625 15.546883q0 11.40625 4.09375 16.25q4.109375 4.828125 10.671875 4.828125q4.84375 0 8.328125 -3.0625q3.484375 -3.078125 5.0 -9.6875zm60.66211 0l11.78125 3.734375q-2.703125 9.84375 -9.0 14.625q-6.296875 4.78125 -15.984375 4.78125q-11.96875 0 -19.6875 -8.1875q-7.703125 -8.1875 -7.703125 -22.375q0 -15.015633 7.75 -23.312508q7.75 -8.3125 20.375 -8.3125q11.046875 0 17.9375 6.515625q4.09375 3.859375 6.140625 11.078125l-12.015625 2.875q-1.0625 -4.671875 -4.453125 -7.375q-3.375 -2.71875 -8.21875 -2.71875q-6.6875 0 -10.859375 4.796875q-4.15625 4.796875 -4.15625 15.546883q0 11.40625 4.09375 16.25q4.109375 4.828125 10.671875 4.828125q4.84375 0 8.328125 -3.0625q3.484375 -3.078125 5.0 -9.6875z" fill-rule="nonzero"></path><path fill="#666666" d="m500.05875 132.85225l-5.953125 -5.9375076l-54.84375 2.2031326q-0.578125 4.703125 -4.796875 0.484375l-2.15625 -11.140633l15.25 0q7.328125 -12.234375 14.921875 -26.6875l8.609375 3.28125q5.015625 4.171875 -1.109375 5.390625q-6.1875 10.21875 -11.53125 17.984375l27.4375 -0.25q-4.015625 -3.84375 -11.609375 -9.328125l7.625 -6.625q14.046875 10.09375 26.1875 22.59375l-8.03125 8.031258zm-14.546875 36.03125l0 -3.609375l-31.609375 0l0 4.265625l-10.0625 0l0 -36.3125l51.734375 0l0 35.65625l-10.0625 0zm-31.609375 -13.34375l31.609375 0l0 -12.578125l-31.609375 0l0 12.578125zm123.15628 -22.09375l0 -14.000008l-2.59375 0.15625q-2.21875 5.921875 -4.90625 -1.234375l-1.015625 -6.140625l4.53125 0l2.265625 -2.625l-5.40625 -4.453125l8.546875 -13.421875l5.84375 2.703125q5.046875 4.03125 -0.984375 4.78125l-3.4375 4.375l-0.0625 -0.046875l4.34375 -5.890625l5.421875 2.703125q5.015625 4.015625 -1.015625 4.78125l-5.640625 6.921875l0.71875 -0.03125l-1.390625 -2.3125l5.953125 -3.296875q3.578125 5.375 6.328125 10.859375l-6.296875 3.765625l-1.265625 -2.53125l-1.84375 0.265625l0 14.671883l-8.09375 0zm-46.875 -2.34375q2.3125 -6.4531326 3.9375 -13.750008l5.390625 0.484375q5.953125 2.375 1.125 4.296875q-0.828125 4.125 -3.0 10.218758l-7.453125 -1.25zm-0.71875 -19.531258l5.8125 0l2.296875 -3.046875l-3.65625 -2.375l-4.8125 6.203125q-5.234375 -5.21875 -12.859375 -10.4375l6.3125 -8.25q7.4375 4.140625 10.40625 7.09375l2.140625 -3.046875l1.3125 1.25l4.625 -7.484375l4.640625 1.859375q6.546875 2.796875 -0.21875 5.046875l-2.96875 4.34375l-0.453125 -0.34375l4.515625 -5.796875l4.703125 2.828125q4.890625 3.90625 -0.71875 4.71875l-5.734375 7.265625l0.9375 -0.03125l-1.4375 -2.625l6.25 -3.75q3.5625 6.21875 6.296875 12.140625l-6.875 3.125l-0.875 -2.15625l-2.015625 0.140625l0 15.203133l-8.09375 0l0 -14.671883l-3.328125 0.171875q-2.78125 6.296875 -5.15625 -1.609375l-1.046875 -5.765625zm21.671875 -12.46875l21.546875 0l0 7.4375l-21.546875 0l0 -7.4375zm-30.890625 13.625q7.078125 3.75 12.921875 9.171875l-6.234375 9.609383q-6.0 -5.9843826 -13.015625 -10.531258l6.328125 -8.25zm14.65625 27.078133q-4.34375 15.53125 -9.71875 25.03125q1.15625 7.59375 -5.203125 3.359375l-7.15625 -6.375q8.609375 -12.1875 13.109375 -27.984375l8.96875 5.96875zm49.59375 -6.90625l0 16.296875l-36.484375 0l-0.109375 0.4375l43.484375 0l-4.359375 13.453125q-2.6875 8.09375 -10.1875 8.09375l-11.1875 0l-2.5625 -9.734375l11.125 0q2.625 0 2.921875 -1.046875l0.609375 -2.015625l-32.078125 0l-1.34375 4.734375l-10.109375 -1.015625l5.875 -20.34375l34.34375 0l0 -0.109375l-38.71875 0l0 -8.75l48.78125 0zm-31.390625 -27.234383l17.609375 0l0 7.4375l-17.609375 0l0 -7.4375zm0 -13.125l17.609375 0l0 7.4375l-17.609375 0l0 -7.4375zm0 19.359375l17.609375 0l0 7.4375l-17.609375 0l0 -7.4375zm-2.4375 4.828125q2.875 4.796875 4.234375 10.671875l-6.40625 3.2031326q-1.84375 -6.4687576 -4.265625 -11.312508l6.4375 -2.5625zm27.359375 1.8125q6.96875 2.328125 0.96875 4.328125q-0.796875 3.734375 -3.0625 10.093758l-6.90625 -2.515625q2.1875 -6.1406326 3.90625 -13.421883l5.09375 1.515625zm9.96875 13.671883q-3.25 -6.0312576 -5.4375 -12.156258l6.65625 -3.640625q2.671875 6.65625 5.359375 11.609383l-6.578125 4.1875zm-24.390625 -6.3125076l-3.390625 0l0 0.109375l3.390625 0l0 -0.109375zm-11.484375 7.5468826l0 -14.984383l19.578125 0l0 14.984383l-19.578125 0zm70.4375 -26.796883l4.421875 0l2.03125 -2.03125l7.625 7.609375l-3.640625 2.609375q-3.828125 7.328125 -9.21875 14.000008q6.015625 1.921875 13.71875 7.203125l-5.28125 10.546875q-7.15625 -5.890625 -9.65625 -7.296875l0 31.234375l-10.0625 0l0 -30.34375q-3.125 2.78125 -11.1875 7.453125l-4.421875 -9.8125q16.75 -9.0625 23.84375 -21.437508l-20.375 0l0 -9.734375l12.140625 0l0 -14.109375l8.09375 0q7.171875 0.890625 1.96875 4.625l0 9.484375zm34.1875 -12.140625q7.59375 1.515625 1.90625 5.3125l0 14.703125l15.09375 0l0 10.71875l-15.09375 0l0 30.625008l18.046875 0l0 10.71875l-48.453125 0l0 -10.71875l19.359375 0l0 -30.625008l-14.109375 0l0 -10.71875l14.109375 0l0 -20.015625l9.140625 0zm93.59375 11.8125l9.046875 0l0 9.734375l-14.4375 0l0 7.328125l12.140625 0l0 9.734383l-12.140625 0l0 7.0l16.40625 0l0 9.734375l-16.40625 0l0 20.015625l-10.0625 0l0 -20.015625l-14.4375 0l0 -9.734375l14.4375 0l0 -7.0l-12.140625 0l0 -9.734383l12.140625 0l0 -7.328125l-13.125 0l0 -9.734375l18.671875 0q2.421875 -5.390625 4.859375 -14.765625l9.078125 3.890625q4.03125 4.015625 -0.84375 4.71875l-3.1875 6.15625zm-26.71875 12.03125l-3.28125 0l0 15.750008l-9.078125 0l0 -2.625l-6.59375 0q-0.453125 2.96875 -1.25 5.03125l16.59375 0l0 29.75l-9.078125 0l0 -2.296875l-7.65625 0l0 6.890625l-9.078125 0l0 -17.953125q-0.171875 0.265625 -7.90625 7.546875l-3.53125 -10.59375q10.90625 -9.546875 12.421875 -18.375l-8.203125 0l0 -8.750008l9.453125 0q0.390625 -2.328125 0.390625 -4.375l-12.140625 0l0 -8.75l12.140625 0l0 -4.375l-9.84375 0l0 -8.75l33.359375 0l0 13.125l3.28125 0l0 8.75zm8.65625 -26.296875q5.828125 5.828125 8.890625 12.8125l-9.25 5.34375q-3.015625 -6.453125 -8.03125 -12.734375l8.390625 -5.421875zm-21.34375 53.203133l-7.65625 0l0 9.953125l7.65625 0l0 -9.953125zm0.328125 -40.031258l-5.359375 0l0 4.375l5.359375 0l0 -4.375zm0 13.125l-5.359375 0q0 2.328125 -0.34375 4.375l5.703125 0l0 -4.375z" fill-rule="nonzero"></path></g></svg>

