<svg id="圖層_1" data-name="圖層 1" xmlns="http://www.w3.org/2000/svg" xmlns:xlink="http://www.w3.org/1999/xlink" viewBox="0 0 200 200"><defs><style>.cls-1{fill:none;}.cls-2{fill:#939393;}.cls-3,.cls-5{fill:#fff;}.cls-4{clip-path:url(#clip-path);}.cls-5{stroke:#000;stroke-miterlimit:10;stroke-width:4px;}</style><clipPath id="clip-path"><path class="cls-1" d="M125,182H75V118.86A6.4,6.4,0,0,1,81,114c4,0,10,4,19,4s16-4,19.75-4c4.25,0,5.25,4.86,5.25,4.86Z"/></clipPath></defs><title>招募社群</title><circle class="cls-2" cx="63.98" cy="98.48" r="25.48"/><path class="cls-2" d="M84.53,181.5H43.43V129.6a5.26,5.26,0,0,1,4.93-4c3.29,0,8.24,3.39,15.64,3.39s13.13-3.39,16.21-3.39c3.5,0,4.32,4,4.32,4Z"/><circle class="cls-2" cx="136.94" cy="98.48" r="25.48"/><path class="cls-2" d="M157.49,181.5h-41.1V129.6a5.25,5.25,0,0,1,4.93-4c3.29,0,8.28,3.39,15.68,3.39s13.09-3.39,16.17-3.39c3.49,0,4.32,4,4.32,4Z"/><circle cx="100" cy="81" r="31"/><path d="M125,182H75V118.86A6.4,6.4,0,0,1,81,114c4,0,10,4,19,4s16-4,19.75-4c4.25,0,5.25,4.86,5.25,4.86Z"/><path class="cls-3" d="M102.94,137.12,108,117c.27-1.06-1.22.28-2.3.47a30.75,30.75,0,0,1-11.37,0c-1.08-.18-2.61-1.53-2.33-.47l5.33,20.16A2.9,2.9,0,0,0,102.94,137.12Z"/><g class="cls-4"><path class="cls-5" d="M92,117a44.8,44.8,0,0,0,8,1,44.8,44.8,0,0,0,8-1"/><circle cx="100" cy="124" r="2"/><circle cx="100" cy="131" r="2"/></g><path d="M100,20a80,80,0,1,1-80,80,80.09,80.09,0,0,1,80-80m0-7a87,87,0,1,0,87,87,87,87,0,0,0-87-87Z"/><circle class="cls-1" cx="100" cy="100" r="87"/></svg>