<svg id="圖層_1" data-name="圖層 1" xmlns="http://www.w3.org/2000/svg" xmlns:xlink="http://www.w3.org/1999/xlink" viewBox="0 0 200 200"><defs><style>.cls-1,.cls-3{fill:none;}.cls-2{clip-path:url(#clip-path);}.cls-3{stroke:#000;stroke-miterlimit:10;stroke-width:5px;}.cls-4{fill:#fff;}</style><clipPath id="clip-path"><circle class="cls-1" cx="101" cy="102" r="87"/></clipPath></defs><title>影音教材icon</title><g class="cls-2"><rect class="cls-3" x="80.5" y="45.5" width="115" height="74" rx="13" ry="13"/><path class="cls-3" d="M129.5,71.14V93a3,3,0,0,0,4,2.83l23.23-11.57a3,3,0,0,0-.1-5.7L133.43,68.27A3,3,0,0,0,129.5,71.14Z"/><rect class="cls-4" x="42.5" y="87.5" width="69" height="97" rx="4.63" ry="4.63"/><path d="M106.88,90A2.12,2.12,0,0,1,109,92.13v87.75a2.12,2.12,0,0,1-2.12,2.12H47.13A2.12,2.12,0,0,1,45,179.88V92.13A2.13,2.13,0,0,1,47.13,90h59.75m0-5H47.13A7.13,7.13,0,0,0,40,92.13v87.75A7.13,7.13,0,0,0,47.13,187h59.75a7.12,7.12,0,0,0,7.12-7.12V92.13A7.13,7.13,0,0,0,106.88,85Z"/><path d="M51,99.75H78c2.9,0,2.9-4.5,0-4.5H51c-2.9,0-2.9,4.5,0,4.5Z"/><path d="M51,110.75h54c2.9,0,2.9-4.5,0-4.5H51c-2.9,0-2.9,4.5,0,4.5Z"/><path d="M51,131.75h54c2.9,0,2.9-4.5,0-4.5H51c-2.9,0-2.9,4.5,0,4.5Z"/><path d="M51,121.75h54c2.9,0,2.9-4.5,0-4.5H51c-2.9,0-2.9,4.5,0,4.5Z"/><path d="M51,142.75h54c2.9,0,2.9-4.5,0-4.5H51c-2.9,0-2.9,4.5,0,4.5Z"/><path d="M51,153.75h54c2.9,0,2.9-4.5,0-4.5H51c-2.9,0-2.9,4.5,0,4.5Z"/><path d="M101,22a80,80,0,1,1-80,80,80.09,80.09,0,0,1,80-80m0-7a87,87,0,1,0,87,87,87,87,0,0,0-87-87Z"/></g></svg>