<svg id="圖層_1" data-name="圖層 1" xmlns="http://www.w3.org/2000/svg" viewBox="0 0 200 200"><defs><style>.cls-1,.cls-2{fill:#fff;}.cls-2{stroke:#000;stroke-miterlimit:10;stroke-width:1.5px;}</style></defs><title>舊聞新知icon</title><path class="cls-1" d="M147,36.5H69A8.54,8.54,0,0,0,63,39h0a8.54,8.54,0,0,0-2.5,6V152a8.54,8.54,0,0,0,2.5,6h0a8.54,8.54,0,0,0,6,2.5H147Z"/><path d="M147,34.25H84.14c-6.53,0-17.58-2-22.73,3.16-4.72,4.67-3.16,13.9-3.16,19.92v75c0,6.49-.32,13.06,0,19.55.53,11,10.49,10.83,18.64,10.83H147a2.28,2.28,0,0,0,2.25-2.25V36.5c0-2.9-4.5-2.9-4.5,0v124l2.25-2.25H74c-3.09,0-7,.57-9.41-1.84-3.6-3.6-1.84-13.66-1.84-18.09V66.23c0-6.87-.43-13.9,0-20.76.55-8.78,11.41-6.72,17.54-6.72H147C149.86,38.75,149.86,34.25,147,34.25Z"/><path class="cls-1" d="M140,41.5H62A8.54,8.54,0,0,0,56,44h0a8.54,8.54,0,0,0-2.5,6V157a8.54,8.54,0,0,0,2.5,6h0a8.54,8.54,0,0,0,6,2.5H140Z"/><path d="M140,39.25H77.14c-6.53,0-17.58-2-22.73,3.16-4.72,4.67-3.16,13.9-3.16,19.92v75c0,6.49-.32,13.06,0,19.55.53,11,10.49,10.83,18.64,10.83H140a2.28,2.28,0,0,0,2.25-2.25V41.5c0-2.9-4.5-2.9-4.5,0v124l2.25-2.25H67c-3.09,0-7,.57-9.41-1.84-3.6-3.6-1.84-13.66-1.84-18.09V71.23c0-6.87-.43-13.9,0-20.76.55-8.78,11.41-6.72,17.54-6.72H140C142.86,43.75,142.86,39.25,140,39.25Z"/><path d="M140.64,43.44l7-5a2.31,2.31,0,0,0,.8-3.08,2.27,2.27,0,0,0-3.08-.8l-7,5a2.31,2.31,0,0,0-.8,3.08,2.27,2.27,0,0,0,3.08.8Z"/><path d="M140.64,167.44l7-5a2.31,2.31,0,0,0,.8-3.08,2.27,2.27,0,0,0-3.08-.8l-7,5a2.31,2.31,0,0,0-.8,3.08,2.27,2.27,0,0,0,3.08.8Z"/><polygon class="cls-2" points="141.5 41.5 145.5 38.5 145.5 159.5 141.5 162.5 141.5 41.5"/><rect class="cls-1" x="67.5" y="57.5" width="29" height="29"/><path d="M96.5,84.25h-29l2.25,2.25v-29L67.5,59.75h29L94.25,57.5v29c0,2.9,4.5,2.9,4.5,0v-29a2.28,2.28,0,0,0-2.25-2.25h-29a2.28,2.28,0,0,0-2.25,2.25v29a2.28,2.28,0,0,0,2.25,2.25h29C99.4,88.75,99.4,84.25,96.5,84.25Z"/><path d="M67.5,102.75h60c2.9,0,2.9-4.5,0-4.5h-60c-2.9,0-2.9,4.5,0,4.5Z"/><path d="M68,113.75h60c2.9,0,2.9-4.5,0-4.5H68c-2.9,0-2.9,4.5,0,4.5Z"/><path d="M67.5,124.75h60c2.9,0,2.9-4.5,0-4.5h-60c-2.9,0-2.9,4.5,0,4.5Z"/></svg>