<svg id="圖層_1" data-name="圖層 1" xmlns="http://www.w3.org/2000/svg" xmlns:xlink="http://www.w3.org/1999/xlink" viewBox="0 0 200 200"><defs><style>.cls-1,.cls-3{fill:none;}.cls-2{clip-path:url(#clip-path);}.cls-3{stroke:#000;stroke-miterlimit:10;stroke-width:4px;}.cls-4{fill:#b3b3b3;}.cls-5{fill:#4d4d4d;}</style><clipPath id="clip-path"><circle class="cls-1" cx="101" cy="102" r="87"/></clipPath></defs><title>演講邀約</title><g class="cls-2"><rect class="cls-3" x="70" y="46.72" width="135.66" height="88.28" rx="12" ry="12"/><rect class="cls-4" x="78" y="52" width="36" height="36" rx="11.17" ry="11.17"/><path class="cls-5" d="M126,59.25h38c2.9,0,2.9-4.5,0-4.5H126c-2.9,0-2.9,4.5,0,4.5Z"/><path class="cls-5" d="M126,67.55h38c2.9,0,2.9-4.5,0-4.5H126c-2.9,0-2.9,4.5,0,4.5Z"/><path class="cls-5" d="M126,76.4h38c2.9,0,2.9-4.5,0-4.5H126c-2.9,0-2.9,4.5,0,4.5Z"/><path class="cls-5" d="M126,85.25h38c2.9,0,2.9-4.5,0-4.5H126c-2.9,0-2.9,4.5,0,4.5Z"/><path class="cls-5" d="M126,106.33h37.78c2.9,0,2.9-4.5,0-4.5H126c-2.9,0-2.9,4.5,0,4.5Z"/><path class="cls-5" d="M126.21,116.79H164c2.89,0,2.9-4.5,0-4.5h-37.8c-2.89,0-2.9,4.5,0,4.5Z"/><path class="cls-5" d="M126.22,127.25H164c2.9,0,2.9-4.5,0-4.5H126.22c-2.9,0-2.9,4.5,0,4.5Z"/><circle cx="71" cy="88" r="31"/><path d="M96,189H46V125.86A6.4,6.4,0,0,1,52,121c4,0,10,4,19,4s16-4,19.75-4C95,121,96,125.86,96,125.86Z"/><path d="M36.76,178.9H33.09a6.53,6.53,0,0,1-6.5-6.5V131.86c0-3.57,7.84-6.86,11.41-6.86h0c3.57,0,5.26,3.29,5.26,6.86V172.4A6.52,6.52,0,0,1,36.76,178.9Z"/><path d="M103,135a9.38,9.38,0,0,1-4-4c-1-2-.37-6.3,1.84-9.11l21.64-28.41C125,90,131,87,135.05,89l2.88,2.28a6.52,6.52,0,0,1,1.09,9.13l-25.08,31.84C111.72,135,105,136,103,135Z"/><path d="M101,22a80,80,0,1,1-80,80,80.09,80.09,0,0,1,80-80m0-7a87,87,0,1,0,87,87,87,87,0,0,0-87-87Z"/></g></svg>